<?xml version="1.0" standalone="no"?>
<!DOCTYPE svg PUBLIC "-//W3C//DTD SVG 20010904//EN"
 "http://www.w3.org/TR/2001/REC-SVG-20010904/DTD/svg10.dtd">
<svg version="1.0" xmlns="http://www.w3.org/2000/svg"
 width="101.000000pt" height="101.000000pt" viewBox="0 0 101.000000 101.000000"
 preserveAspectRatio="xMidYMid meet">
<metadata>
Created by potrace 1.11, written by Peter Selinger 2001-2013
</metadata>
<g transform="translate(0.000000,101.000000) scale(0.100000,-0.100000)"
fill="#000000" stroke="none">
<path d="M194 961 c-2 -2 -4 -13 -4 -23 0 -15 8 -18 55 -18 l55 0 0 -35 c0
-24 -8 -44 -23 -58 -19 -20 -22 -33 -21 -98 0 -88 9 -119 33 -119 11 0 25 -16
37 -42 10 -24 20 -46 22 -49 1 -3 -47 -5 -108 -4 -60 1 -115 -2 -121 -6 -12
-7 -18 -134 -8 -151 4 -7 46 -10 103 -10 l96 1 0 -99 0 -100 -42 2 c-75 3
-115 -76 -63 -128 24 -23 28 -24 147 -22 l123 3 1 65 c0 59 3 65 22 68 21 3
22 0 22 -67 l0 -71 113 0 c134 0 149 4 169 38 34 57 -6 114 -80 116 l-37 1 0
89 0 89 108 55 c59 30 107 60 107 68 0 8 -11 31 -24 52 -23 37 -26 44 -26 61
0 24 -38 17 -111 -20 -44 -23 -83 -39 -85 -36 -3 3 2 19 10 36 9 16 16 37 16
45 0 8 10 16 22 18 28 4 42 53 36 126 -3 33 -1 52 6 52 6 0 1 8 -10 18 -28 22
-44 54 -44 86 0 24 3 26 50 26 42 0 50 -3 50 -19 0 -10 -7 -24 -15 -31 -11 -9
-13 -28 -10 -77 4 -76 14 -96 16 -32 l2 44 7 -40 c7 -37 15 -23 11 18 -1 9 2
17 8 17 5 0 8 -16 5 -35 -2 -20 0 -35 6 -35 5 0 11 24 11 53 2 67 0 80 -14 89
-7 4 -13 22 -13 40 -1 18 -2 38 -3 43 -1 10 -597 15 -607 6z"/>
</g>
</svg>
